<svg width="1200" height="630" viewBox="0 0 1200 630" xmlns="http://www.w3.org/2000/svg" xmlns:xlink="http://www.w3.org/1999/xlink">
  <defs>
    <linearGradient id="bg" x1="0%" y1="0%" x2="100%" y2="100%">
      <stop offset="0%" style="stop-color:#1a1a2e"/>
      <stop offset="100%" style="stop-color:#12122a"/>
    </linearGradient>
    <linearGradient id="glow" x1="0%" y1="0%" x2="100%" y2="100%">
      <stop offset="0%" style="stop-color:#ffd93d;stop-opacity:0.15"/>
      <stop offset="100%" style="stop-color:#ffd93d;stop-opacity:0"/>
    </linearGradient>
    <filter id="blur">
      <feGaussianBlur stdDeviation="40"/>
    </filter>
  </defs>

  <!-- Background -->
  <rect width="1200" height="630" fill="url(#bg)"/>

  <!-- Glow blob top-right -->
  <ellipse cx="950" cy="150" rx="300" ry="200" fill="#ffd93d" opacity="0.08" filter="url(#blur)"/>
  <!-- Glow blob bottom-left -->
  <ellipse cx="200" cy="500" rx="250" ry="180" fill="#6bcb77" opacity="0.06" filter="url(#blur)"/>

  <!-- Grid lines (subtle) -->
  <g stroke="rgba(255,255,255,0.03)" stroke-width="1">
    <line x1="0" y1="210" x2="1200" y2="210"/>
    <line x1="0" y1="420" x2="1200" y2="420"/>
    <line x1="400" y1="0" x2="400" y2="630"/>
    <line x1="800" y1="0" x2="800" y2="630"/>
  </g>

  <!-- Badge pill -->
  <rect x="115" y="148" width="180" height="32" rx="16" fill="rgba(255,217,61,0.12)" stroke="rgba(255,217,61,0.3)" stroke-width="1"/>
  <text x="205" y="169" font-family="-apple-system, BlinkMacSystemFont, 'Segoe UI', sans-serif" font-size="13" font-weight="600" fill="#ffd93d" text-anchor="middle" letter-spacing="1.5">EXPENSE MANAGER</text>

  <!-- App name -->
  <text x="115" y="265" font-family="-apple-system, BlinkMacSystemFont, 'Segoe UI', sans-serif" font-size="88" font-weight="800" fill="#ffffff">Kriyan</text>

  <!-- Tagline -->
  <text x="115" y="325" font-family="-apple-system, BlinkMacSystemFont, 'Segoe UI', sans-serif" font-size="30" font-weight="400" fill="#ffd93d">Spend smarter. Build wealth.</text>

  <!-- Description -->
  <text x="115" y="375" font-family="-apple-system, BlinkMacSystemFont, 'Segoe UI', sans-serif" font-size="20" fill="#9999bb">Budget envelopes · Spending nudges · 100% private</text>

  <!-- Store chips -->
  <!-- Play Store chip -->
  <rect x="115" y="430" width="188" height="52" rx="12" fill="rgba(255,255,255,0.07)" stroke="rgba(255,255,255,0.12)" stroke-width="1"/>
  <text x="145" y="450" font-family="-apple-system, BlinkMacSystemFont, 'Segoe UI', sans-serif" font-size="11" fill="#aaaacc">Get it on</text>
  <text x="145" y="470" font-family="-apple-system, BlinkMacSystemFont, 'Segoe UI', sans-serif" font-size="16" font-weight="700" fill="#ffffff">Google Play</text>

  <!-- App Store chip -->
  <rect x="319" y="430" width="188" height="52" rx="12" fill="rgba(255,255,255,0.07)" stroke="rgba(255,255,255,0.12)" stroke-width="1"/>
  <text x="349" y="450" font-family="-apple-system, BlinkMacSystemFont, 'Segoe UI', sans-serif" font-size="11" fill="#aaaacc">Download on the</text>
  <text x="349" y="470" font-family="-apple-system, BlinkMacSystemFont, 'Segoe UI', sans-serif" font-size="16" font-weight="700" fill="#ffffff">App Store</text>

  <!-- Phone mockup frame (right side) -->
  <rect x="780" y="60" width="300" height="520" rx="40" fill="rgba(255,255,255,0.04)" stroke="rgba(255,217,61,0.2)" stroke-width="2"/>
  <rect x="800" y="80" width="260" height="480" rx="30" fill="rgba(26,26,46,0.8)"/>

  <!-- Mock screen content -->
  <!-- Header bar -->
  <rect x="800" y="80" width="260" height="64" rx="30" fill="#22223a"/>
  <rect x="800" y="112" width="260" height="32" fill="#22223a"/>
  <text x="930" y="118" font-family="-apple-system, BlinkMacSystemFont, 'Segoe UI', sans-serif" font-size="13" font-weight="700" fill="#ffffff" text-anchor="middle">Dashboard</text>

  <!-- Budget circle mock -->
  <circle cx="930" cy="230" r="68" fill="none" stroke="rgba(255,255,255,0.06)" stroke-width="12"/>
  <circle cx="930" cy="230" r="68" fill="none" stroke="#ffd93d" stroke-width="12" stroke-dasharray="290 145" stroke-dashoffset="72" stroke-linecap="round"/>
  <text x="930" y="224" font-family="-apple-system, BlinkMacSystemFont, 'Segoe UI', sans-serif" font-size="11" fill="#9999bb" text-anchor="middle">Remaining</text>
  <text x="930" y="244" font-family="-apple-system, BlinkMacSystemFont, 'Segoe UI', sans-serif" font-size="18" font-weight="700" fill="#ffffff" text-anchor="middle">₹12,400</text>

  <!-- Mini category bars -->
  <rect x="820" y="318" width="220" height="38" rx="10" fill="rgba(255,255,255,0.04)"/>
  <text x="834" y="334" font-family="-apple-system, BlinkMacSystemFont, 'Segoe UI', sans-serif" font-size="10" fill="#9999bb">Essentials</text>
  <rect x="834" y="340" width="160" height="5" rx="2.5" fill="rgba(255,255,255,0.08)"/>
  <rect x="834" y="340" width="95" height="5" rx="2.5" fill="#ffd93d"/>

  <rect x="820" y="364" width="220" height="38" rx="10" fill="rgba(255,255,255,0.04)"/>
  <text x="834" y="380" font-family="-apple-system, BlinkMacSystemFont, 'Segoe UI', sans-serif" font-size="10" fill="#9999bb">Luxury</text>
  <rect x="834" y="386" width="160" height="5" rx="2.5" fill="rgba(255,255,255,0.08)"/>
  <rect x="834" y="386" width="48" height="5" rx="2.5" fill="#6bcb77"/>

  <rect x="820" y="410" width="220" height="38" rx="10" fill="rgba(255,255,255,0.04)"/>
  <text x="834" y="426" font-family="-apple-system, BlinkMacSystemFont, 'Segoe UI', sans-serif" font-size="10" fill="#9999bb">Investments</text>
  <rect x="834" y="432" width="160" height="5" rx="2.5" fill="rgba(255,255,255,0.08)"/>
  <rect x="834" y="432" width="120" height="5" rx="2.5" fill="#a78bfa"/>

  <!-- Nudge chip on phone -->
  <rect x="820" y="460" width="220" height="44" rx="10" fill="rgba(255,217,61,0.1)" stroke="rgba(255,217,61,0.25)" stroke-width="1"/>
  <text x="834" y="476" font-family="-apple-system, BlinkMacSystemFont, 'Segoe UI', sans-serif" font-size="10" font-weight="600" fill="#ffd93d">⚡ Spending Nudge</text>
  <text x="834" y="492" font-family="-apple-system, BlinkMacSystemFont, 'Segoe UI', sans-serif" font-size="10" fill="#9999bb">82% of Essentials used this month</text>

  <!-- Bottom domain -->
  <text x="115" y="590" font-family="-apple-system, BlinkMacSystemFont, 'Segoe UI', sans-serif" font-size="16" fill="rgba(255,255,255,0.3)">kriyan.app</text>
</svg>